<?xml version="1.0" standalone="no"?>
<!DOCTYPE svg PUBLIC "-//W3C//DTD SVG 20010904//EN"
 "http://www.w3.org/TR/2001/REC-SVG-20010904/DTD/svg10.dtd">
<svg version="1.0" xmlns="http://www.w3.org/2000/svg"
 width="1057.000000pt" height="1057.000000pt" viewBox="0 0 1057.000000 1057.000000"
 preserveAspectRatio="xMidYMid meet">
<metadata>
Created by potrace 1.11, written by Peter Selinger 2001-2013
</metadata>
<g transform="translate(0.000000,1057.000000) scale(0.100000,-0.100000)"
fill="#000000" stroke="none">
<path d="M5097 10154 c-1 -1 -56 -5 -122 -8 -66 -4 -140 -10 -165 -12 -25 -3
-65 -7 -90 -9 -25 -2 -45 -4 -45 -5 0 0 -16 -3 -35 -4 -49 -5 -134 -18 -140
-21 -7 -4 -109 -18 -137 -19 -13 -1 -23 -3 -23 -6 0 -3 -8 -6 -17 -6 -52 -3
-398 -89 -476 -119 -20 -8 -38 -14 -40 -14 -7 3 -256 -82 -317 -108 -8 -3 -17
-7 -20 -7 -56 -12 -626 -289 -650 -316 -3 -3 -32 -21 -65 -39 -33 -19 -63 -38
-66 -43 -3 -5 -10 -10 -15 -10 -14 -1 -234 -150 -319 -215 -148 -115 -193
-151 -205 -163 -8 -8 -29 -25 -45 -38 -150 -115 -476 -451 -638 -655 -15 -19
-41 -50 -57 -68 -16 -19 -30 -40 -30 -46 0 -7 -3 -13 -7 -13 -5 0 -19 -17 -33
-37 -14 -20 -30 -41 -36 -47 -20 -21 -203 -301 -249 -381 -7 -11 -26 -44 -43
-72 -17 -29 -28 -53 -24 -53 4 0 2 -4 -3 -8 -6 -4 -16 -18 -23 -32 -6 -14 -16
-32 -20 -40 -5 -8 -15 -26 -21 -39 -7 -13 -21 -39 -32 -57 -10 -19 -19 -36
-19 -39 0 -3 -23 -53 -50 -111 -28 -59 -50 -109 -50 -111 0 -3 -6 -19 -14 -36
-34 -78 -86 -216 -86 -230 0 -9 -5 -19 -10 -22 -6 -3 -10 -12 -10 -20 0 -8 -5
-26 -12 -42 -6 -15 -12 -32 -13 -38 -2 -5 -12 -41 -25 -80 -19 -63 -67 -236
-75 -275 -2 -8 -4 -15 -5 -15 -2 0 -5 -13 -13 -55 -3 -14 -8 -36 -11 -50 -3
-14 -8 -37 -11 -52 -3 -16 -7 -40 -10 -55 -14 -70 -34 -185 -40 -233 -3 -25
-8 -56 -10 -70 -6 -37 -18 -150 -19 -192 0 -21 -3 -38 -6 -38 -8 0 -14 -171
-14 -415 0 -204 4 -296 19 -440 2 -22 7 -65 10 -95 3 -30 8 -71 11 -90 2 -19
7 -51 9 -70 2 -19 11 -75 20 -125 24 -133 30 -165 51 -249 8 -34 17 -72 20
-86 2 -14 13 -55 24 -91 11 -36 21 -75 23 -85 2 -10 7 -26 10 -34 3 -8 17 -51
31 -95 29 -96 91 -268 111 -312 8 -17 15 -34 15 -38 0 -4 6 -21 14 -38 52
-118 71 -158 92 -199 13 -27 21 -48 18 -48 -4 0 -2 -6 4 -12 6 -7 34 -58 62
-113 68 -129 117 -215 199 -345 60 -96 198 -298 211 -310 3 -3 25 -32 50 -65
46 -62 178 -221 240 -289 141 -155 177 -192 300 -306 63 -58 124 -115 137
-127 13 -13 26 -23 28 -23 5 0 46 -36 90 -77 13 -13 28 -23 33 -23 5 0 15 -7
22 -15 18 -22 237 -185 249 -185 5 0 11 -4 13 -9 4 -13 258 -174 398 -252 112
-63 276 -146 412 -208 178 -81 579 -224 694 -247 6 -1 38 -10 70 -19 33 -9 70
-19 83 -21 12 -3 53 -12 90 -20 36 -9 77 -17 91 -19 14 -2 25 -4 25 -5 0 -1
11 -3 25 -5 14 -2 34 -5 45 -8 26 -6 105 -20 130 -23 73 -9 113 -14 134 -19
13 -2 54 -7 91 -10 36 -3 86 -7 111 -10 203 -22 645 -23 739 -1 14 3 43 8 65
10 84 9 190 28 255 46 25 7 56 14 69 17 44 8 319 102 360 123 23 11 41 18 41
16 0 -12 334 168 376 203 7 6 14 7 18 4 3 -3 8 2 12 11 3 9 11 16 16 16 12 0
152 100 156 112 2 4 8 8 14 8 5 0 15 6 22 12 7 7 30 27 51 43 44 34 285 272
331 325 99 116 254 331 254 351 0 5 3 9 8 9 4 0 18 23 31 50 14 28 29 50 33
50 4 0 7 3 6 8 -1 4 7 24 18 45 l20 38 42 -31 c23 -16 46 -30 52 -30 5 0 10
-4 10 -10 0 -5 6 -10 13 -10 7 0 23 -9 35 -20 12 -11 25 -20 30 -20 4 0 17 -8
28 -18 10 -9 66 -51 124 -92 265 -187 621 -509 845 -764 33 -37 65 -73 71 -80
22 -24 121 -143 154 -186 19 -25 38 -47 42 -48 5 -2 8 -8 8 -14 0 -13 63 -71
115 -107 121 -83 290 -106 434 -60 20 6 42 16 49 22 6 5 12 6 12 3 0 -12 116
73 147 107 37 41 96 127 87 127 -3 0 -2 6 4 13 5 6 18 39 28 72 16 57 17 198
18 2445 1 1312 -2 2428 -7 2480 -7 95 -11 124 -23 203 -3 23 -7 60 -9 82 -2
22 -5 40 -5 40 -1 0 -3 16 -6 34 -2 19 -14 80 -25 135 -11 56 -22 116 -25 135
-2 19 -7 38 -10 43 -3 4 -7 18 -10 31 -9 50 -17 80 -44 177 -11 41 -27 98 -35
125 -7 28 -32 102 -55 165 -23 63 -43 122 -45 130 -2 8 -4 16 -5 18 -2 1 -3 5
-5 10 -1 4 -9 24 -18 44 -10 21 -17 40 -17 43 0 27 -218 482 -248 518 -8 9
-12 17 -8 17 4 0 -2 13 -13 29 -12 16 -21 34 -21 40 0 6 -4 11 -10 11 -5 0
-10 4 -10 10 0 28 -306 487 -332 498 -5 2 -8 10 -8 17 0 7 -4 15 -8 17 -5 2
-26 26 -48 53 -21 28 -48 61 -59 73 -11 13 -27 32 -35 42 -8 9 -35 42 -60 71
-82 97 -500 509 -500 493 0 -3 -18 12 -40 32 -22 20 -50 44 -62 53 -13 8 -34
26 -48 39 -14 13 -37 31 -52 40 -16 9 -28 20 -28 25 0 4 -4 5 -10 2 -5 -3 -10
-2 -10 4 0 5 -16 19 -35 31 -20 12 -41 27 -48 33 -17 17 -106 77 -113 77 -3 0
-14 8 -25 18 -25 24 -355 222 -369 222 -5 0 -10 5 -10 10 0 6 -8 10 -18 10
-10 0 -22 4 -28 9 -16 17 -224 117 -364 176 -74 31 -144 60 -155 65 -22 9
-155 56 -250 88 -54 18 -153 47 -285 83 -25 7 -47 13 -50 14 -3 1 -23 5 -45 9
-22 5 -76 17 -120 27 -44 10 -98 21 -120 24 -22 4 -51 8 -65 11 -114 19 -216
34 -275 39 -38 3 -83 8 -100 10 -86 12 -608 28 -618 19z m523 -1018 c25 -2 45
-5 45 -6 0 -1 20 -3 45 -5 25 -2 63 -7 85 -10 22 -4 54 -8 70 -10 17 -2 44 -6
60 -10 17 -3 44 -8 62 -10 18 -2 37 -6 43 -10 6 -4 25 -8 43 -11 81 -10 355
-87 497 -140 52 -19 100 -36 105 -38 6 -1 28 -10 50 -20 22 -10 63 -27 90 -38
61 -24 311 -149 363 -181 20 -13 44 -27 52 -30 8 -4 27 -15 42 -25 15 -9 57
-36 95 -60 37 -24 95 -63 128 -88 33 -24 68 -47 78 -50 9 -4 17 -10 17 -14 0
-5 15 -18 33 -29 17 -11 44 -31 58 -43 15 -13 48 -41 75 -63 245 -204 434
-409 677 -730 48 -64 176 -269 234 -375 60 -109 172 -339 178 -365 1 -5 10
-28 20 -50 27 -61 77 -198 79 -215 1 -9 5 -20 8 -25 6 -12 37 -103 43 -131 2
-10 12 -46 21 -79 9 -33 17 -67 19 -75 2 -8 10 -42 18 -75 9 -33 18 -76 21
-96 3 -20 8 -42 11 -50 3 -8 7 -35 10 -60 2 -24 4 -44 5 -44 2 0 7 -31 15 -90
3 -27 8 -66 11 -85 2 -19 6 -62 8 -96 1 -33 5 -65 8 -70 6 -10 2 -2423 -4
-2429 -2 -2 -1 -38 2 -80 3 -42 3 -78 0 -80 -3 -2 -3 -38 0 -80 3 -42 3 -78 0
-80 -3 -2 -3 -38 0 -80 3 -42 3 -78 0 -80 -3 -2 -3 -62 0 -135 3 -72 2 -139
-2 -149 -3 -10 -2 -24 2 -31 5 -7 4 -24 0 -36 -6 -14 -5 -26 1 -29 5 -4 6 -12
2 -18 -4 -7 -6 -25 -4 -42 l3 -30 -23 20 c-13 11 -31 27 -40 35 -9 8 -31 26
-49 40 -18 14 -38 30 -44 36 -31 29 -247 194 -255 194 -5 0 -11 3 -13 8 -10
23 -382 271 -528 352 l-96 53 2 422 c1 232 4 427 8 434 4 6 3 11 -1 11 -10 0
-9 172 1 188 4 7 4 12 -1 12 -10 0 -9 452 1 468 4 7 4 12 -1 12 -10 0 -9 252
1 268 4 7 4 12 -1 12 -4 0 -8 154 -8 343 -1 387 -5 453 -36 632 -6 33 -12 71
-14 85 -11 77 -72 305 -91 343 -8 15 -12 27 -10 27 5 0 -12 51 -35 105 -7 17
-13 33 -14 38 -2 4 -4 9 -5 12 -1 3 -3 8 -5 13 -12 44 -141 299 -197 390 -22
37 -46 77 -52 89 -6 13 -14 23 -18 23 -5 0 -8 4 -8 10 0 5 -6 18 -14 27 -8 10
-45 59 -83 109 -165 222 -371 425 -605 597 -43 31 -80 57 -83 57 -3 0 -15 8
-26 18 -10 11 -32 25 -47 33 -15 7 -38 21 -52 30 -61 41 -331 179 -350 179 -5
0 -31 10 -57 21 -63 29 -80 35 -128 50 -22 6 -49 16 -60 20 -23 10 -235 65
-280 73 -16 3 -55 11 -85 16 -136 26 -236 33 -475 33 -222 1 -347 -7 -455 -28
-14 -2 -40 -7 -58 -10 -18 -3 -60 -12 -92 -19 -33 -8 -60 -12 -60 -10 0 3 -6
2 -12 -3 -7 -4 -19 -8 -26 -9 -75 -12 -324 -102 -502 -182 -19 -9 -38 -16 -42
-16 -4 -1 -13 -7 -19 -13 -7 -7 -17 -13 -21 -13 -33 0 -331 -193 -474 -307
-114 -92 -317 -288 -394 -383 -29 -36 -56 -67 -59 -70 -4 -3 -28 -34 -53 -70
-26 -36 -51 -69 -56 -75 -25 -30 -146 -233 -188 -315 -81 -156 -163 -356 -190
-462 -1 -5 -3 -10 -4 -13 -1 -3 -4 -9 -5 -15 -1 -5 -3 -11 -5 -12 -1 -2 -3
-10 -5 -18 -1 -8 -13 -53 -24 -100 -12 -47 -24 -101 -28 -120 -7 -45 -11 -65
-13 -65 -1 0 -3 -16 -5 -35 -1 -19 -5 -51 -9 -71 -10 -64 -27 -257 -27 -299 0
-15 0 -87 0 -105 -1 -49 12 -251 21 -317 20 -151 23 -166 65 -354 25 -110 106
-337 156 -436 10 -21 17 -38 14 -38 -4 0 53 -112 108 -210 17 -30 52 -88 79
-128 26 -41 48 -76 48 -78 0 -5 14 -24 42 -54 9 -10 21 -27 27 -38 48 -89 344
-398 496 -517 21 -16 44 -36 51 -42 7 -7 17 -13 22 -13 6 0 12 -4 14 -8 4 -11
142 -107 229 -160 150 -91 331 -180 474 -233 120 -44 141 -51 155 -55 8 -2 47
-13 85 -24 39 -12 81 -23 95 -26 14 -3 45 -10 70 -15 25 -6 54 -13 65 -15 38
-9 115 -20 195 -30 30 -3 64 -9 75 -11 11 -3 166 -7 345 -9 764 -9 927 -12
955 -17 17 -3 59 -8 95 -12 36 -4 67 -8 70 -10 3 -2 25 -6 50 -10 25 -4 47 -8
50 -10 3 -2 23 -6 45 -9 33 -5 80 -17 160 -40 6 -1 26 -6 47 -10 l36 -8 -36
-61 c-33 -58 -115 -174 -165 -234 -36 -45 -190 -196 -226 -223 -18 -14 -45
-35 -60 -47 -14 -13 -31 -27 -38 -33 -7 -5 -17 -10 -23 -10 -5 0 -10 -4 -10
-10 0 -5 -4 -10 -9 -10 -5 0 -36 -17 -68 -38 -80 -53 -289 -152 -353 -167 -3
-1 -31 -9 -64 -19 -32 -10 -64 -19 -70 -20 -6 -2 -22 -6 -36 -9 -14 -4 -36 -9
-50 -11 -14 -3 -36 -7 -49 -10 -96 -21 -433 -28 -596 -13 -193 19 -254 25
-285 31 -14 3 -43 8 -65 11 -52 8 -69 11 -135 25 -30 6 -66 13 -80 15 -14 3
-50 12 -80 20 -30 8 -62 15 -72 15 -10 0 -18 4 -18 8 0 4 -9 8 -20 9 -43 3
-351 107 -455 152 -11 5 -42 19 -70 31 -52 23 -319 154 -345 169 -8 5 -46 28
-83 50 -38 23 -70 41 -73 41 -3 0 -10 5 -17 10 -7 6 -48 34 -92 63 -106 69
-149 100 -153 110 -2 4 -10 7 -17 7 -7 0 -15 3 -17 8 -1 4 -50 45 -108 92
-197 159 -396 354 -560 549 -118 140 -310 417 -376 541 -16 30 -31 57 -35 60
-26 24 -195 398 -257 570 -11 30 -23 64 -28 75 -4 11 -9 31 -11 45 -2 13 -8
29 -12 35 -7 8 -17 42 -21 67 -1 4 -10 38 -21 75 -11 38 -21 77 -23 88 -3 11
-17 76 -31 145 -15 69 -28 139 -31 155 -2 17 -6 48 -8 70 -3 22 -8 60 -10 85
-3 25 -8 70 -12 100 -13 119 -18 415 -10 550 5 74 15 187 21 230 2 19 7 54 10
78 13 104 17 131 32 202 21 104 21 104 23 110 1 3 2 9 1 13 -1 4 8 42 19 85
12 42 26 95 31 117 20 81 101 313 151 435 58 140 187 403 200 408 4 2 8 8 8
13 0 9 118 209 129 219 3 3 11 13 16 22 20 33 89 133 95 138 4 3 11 12 16 21
11 20 48 68 143 182 130 158 371 398 520 517 24 19 48 40 55 45 6 6 29 23 51
40 22 16 46 34 53 40 33 26 39 31 54 40 9 6 54 35 100 66 207 141 497 292 723
379 61 23 119 46 130 50 26 11 100 34 100 31 0 -1 16 5 35 13 19 8 38 15 42
15 4 1 13 3 20 6 11 4 103 28 148 40 54 13 120 27 148 31 18 2 42 8 51 14 10
5 20 7 23 5 2 -3 36 2 74 9 102 21 192 32 339 42 50 3 92 7 94 9 4 5 512 -4
571 -9z m-170 -2050 c98 -11 111 -13 233 -42 9 -2 26 -6 36 -8 82 -18 379
-141 401 -166 3 -3 16 -11 30 -18 36 -17 53 -29 159 -105 389 -284 653 -695
752 -1172 6 -33 13 -69 14 -80 1 -11 6 -54 10 -95 4 -41 9 -529 9 -1083 l1
-1009 -40 7 c-47 8 -55 10 -75 18 -8 4 -26 8 -40 11 -14 2 -36 7 -50 10 -14 3
-37 8 -52 11 -16 3 -38 7 -50 10 -29 6 -218 34 -283 43 -27 3 -69 6 -92 7 -24
0 -43 3 -43 6 0 8 -41 8 -650 13 -300 2 -561 6 -580 10 -19 3 -57 8 -85 11
-27 3 -68 9 -90 13 -40 8 -44 9 -67 16 -40 12 -136 38 -153 41 -11 3 -29 9
-40 14 -27 12 -89 36 -95 36 -12 0 -203 98 -265 136 -115 69 -245 172 -350
277 -104 104 -106 106 -167 183 -102 130 -209 315 -266 465 -32 83 -71 210
-77 254 -3 14 -9 47 -15 74 -24 116 -32 361 -16 486 15 120 31 215 36 215 1 0
3 11 5 25 11 70 74 248 128 360 125 258 297 469 529 653 53 42 100 77 103 77
4 0 25 13 48 28 70 48 274 149 337 166 14 4 34 11 45 16 16 7 53 19 115 35 4
1 113 26 130 30 25 5 107 16 160 21 36 3 66 7 67 8 4 3 241 -3 293 -8z"/>
</g>
</svg>
